<?xml version="1.0" encoding="utf-8"?>
<!-- Generator: Adobe Illustrator 23.0.0, SVG Export Plug-In . SVG Version: 6.00 Build 0)  -->
<svg version="1.1"
	 id="Layer_1" xmlns:cc="http://creativecommons.org/ns#" xmlns:dc="http://purl.org/dc/elements/1.1/" xmlns:rdf="http://www.w3.org/1999/02/22-rdf-syntax-ns#"
	 xmlns="http://www.w3.org/2000/svg" xmlns:xlink="http://www.w3.org/1999/xlink" x="0px" y="0px" viewBox="0 0 14336 3515.2"
	 style="enable-background:new 0 0 14336 3515.2;" xml:space="preserve">
<style type="text/css">
	.st0{fill:#003C66;}
	.st1{fill:#FFFFFF;}
</style>
<g transform="matrix(1.25 0 0 -1.25 -289.04 627.41)">
	<g>
		<path class="st0" d="M231.2,501.9v-2812.2l811.6,338.4l811.5-338.4V501.9L231.2,501.9L231.2,501.9z M9068.1-20.6
			c-171.9,0-262-113-262-224.8c0-102.1,58-172.1,187.8-226.9c124.7-52.6,133.8-83.2,133.8-123.7c0-53.5-37.7-85.4-100.8-85.4
			c-60.7,0-129.8,24.6-189,67.5l-14.3,10.2l-54.4-141.9l8.7-6c74.2-48.6,163.6-76.4,244.6-76.4c172.7,0,263.2,120.4,263.2,239.3
			c0,110.6-52.4,172.6-200.9,237c-92.9,40.9-123.1,67.5-123.1,109.4c0,49.6,39.7,80.4,103.2,80.4c51.6,0,110-27.6,143.7-51.3
			l14.7-9.9l50.4,139.7l-8.3,5.9C9224.5-49.9,9151-20.6,9068.1-20.6z M2512-20.8l-39.3-4.1l-33-790.7h154.1l7.8,423.7l220.3-331.9
			h29.9l218.5,330.9l9.5-422.8h154.1l-33,790.8l-40.4,4l-320.2-490.9L2512-20.8L2512-20.8z M3837.8-126.4l-35.8-7.1v-682.1h137.6
			v395.7l388.2-409.3l30.2,6.5v682.8h-137.4v-389.5C4220.6-529.4,3837.8-126.4,3837.8-126.4z M4597.3-126.4l-35.7-7.1v-682.1H4699
			v395.7l388.3-409.3l30.6,6.5v682.8H4980v-389.5C4980-529.4,4597.3-126.4,4597.3-126.4z M6142.9-129.3
			c-148.9,0-227.1-98-227.1-194.8c0-88.6,50-149.2,162.4-196.6c106-44.7,113.9-70.4,113.9-104.5c0-44.7-31.8-71.4-84.6-71.4
			c-52,0-110.8,21-161.2,57.6l-14.3,10.2l-48.4-125.6l9.1-6c63.9-41.9,140.9-65.9,211.2-65.9c149.3,0,227.5,104.3,227.5,207.3
			c0,94.7-47.2,150.3-173.5,205.2c-79,34.7-104.4,57.1-104.4,92.1c0,41.4,33,67.1,86.5,67.1c43.7,0,93.3-23.5,122.3-43.7l14.3-9.9
			l45.3,123.7l-8.7,5.8C6277.8-154.8,6214.7-129.3,6142.9-129.3L6142.9-129.3z M6821.7-129.3c-196.5,0-344.6-149.9-344.6-348.8
			c0-201.6,142.1-348.1,338.2-348.1c196.5,0,344.6,149.7,344.6,348.1C7160-276,7017.4-129.3,6821.7-129.3L6821.7-129.3z
			 M8071.9-131.1l-311.2-684.5h143.7l62.7,148.7h239l62.7-148.7h146.9l-310.5,684.5C8105.2-131.1,8071.9-131.1,8071.9-131.1z
			 M10245.1-131.1l-311.6-684.5h144.1l62.7,148.7h239l62.7-148.7h146.5L10278-131.1L10245.1-131.1L10245.1-131.1z M3456.7-139.9
			v-675.7h137.6v675.7C3594.3-139.9,3456.7-139.9,3456.7-139.9z M5321-139.9v-675.7h422.4v127.9h-284.6V-535H5716v124.2h-257.3v143
			h284.6v127.9C5743.4-139.9,5321-139.9,5321-139.9z M7226.2-139.9v-127.9h206v-547.8H7570v547.8h205.2v127.9
			C7775.3-139.9,7226.2-139.9,7226.2-139.9z M9399-139.9v-127.9h206.4v-547.8h137.4v547.8h205.2v127.9
			C9948.1-139.9,9399-139.9,9399-139.9z M10573.7-139.9v-127.9h206.4v-547.8h137.4v547.8h205.3v127.9L10573.7-139.9L10573.7-139.9z
			 M11277.6-139.9v-675.7h422.4v127.9h-285v152.6h257.7v124.3H11415v143h285v127.9C11700-139.9,11277.6-139.9,11277.6-139.9z
			 M6818.9-255.4c113.1,0,195.3-93.7,195.3-222.8c0-129.1-82.2-222.8-195.3-222.8c-113.5,0-196.1,93.7-196.1,222.8
			C6622.8-349.1,6705.4-255.4,6818.9-255.4z M8086.5-383.5l71.9-168.9h-143.3L8086.5-383.5z M10259.7-383.5l71.5-168.9h-143.3
			L10259.7-383.5z"/>
		<path class="st1" d="M1042.8,236.7L964.2-174L697.3-18.1l155.8-267l-410.7-78.5l410.7-78.6L697.3-709.2l266.9,155.9l78.6-410.7
			l78.5,410.7l267-155.9l-155.9,266.9l410.7,78.6l-410.7,78.5l155.8,267L1121.4-174C1121.4-174,1042.8,236.7,1042.8,236.7z
			 M1390.9-851.2L1046-1304.3L694.7-851.3l-31.6-755.1h156.6l6.9,344.2l216.2-259.2l214.4,258.4l8.8-343.4h156.5
			C1422.5-1606.4,1390.9-851.2,1390.9-851.2z"/>
	</g>
</g>
</svg>
