<?xml version="1.0" encoding="utf-8"?>
<!-- Generator: Adobe Illustrator 23.0.0, SVG Export Plug-In . SVG Version: 6.00 Build 0)  -->
<svg version="1.1"
	 id="Layer_1" xmlns:cc="http://creativecommons.org/ns#" xmlns:dc="http://purl.org/dc/elements/1.1/" xmlns:rdf="http://www.w3.org/1999/02/22-rdf-syntax-ns#"
	 xmlns="http://www.w3.org/2000/svg" xmlns:xlink="http://www.w3.org/1999/xlink" x="0px" y="0px" viewBox="0 0 290.9 72.8"
	 style="enable-background:new 0 0 290.9 72.8;" xml:space="preserve">
<style type="text/css">
	.st0{fill:#003C66;}
	.st1{fill:#FFFFFF;}
</style>
<g transform="matrix(1.25 0 0 -1.25 -289.04 627.41)">
	<g>
		<path class="st0" d="M232,500.9v-56.7l16.4,6.8l16.4-6.8v56.7H232L232,500.9z M410.1,490.3c-3.5,0-5.3-2.3-5.3-4.5
			c0-2.1,1.2-3.5,3.8-4.6c2.5-1.1,2.7-1.7,2.7-2.5c0-1.1-0.8-1.7-2-1.7c-1.2,0-2.6,0.5-3.8,1.4l-0.3,0.2l-1.1-2.9l0.2-0.1
			c1.5-1,3.3-1.5,4.9-1.5c3.5,0,5.3,2.4,5.3,4.8c0,2.2-1.1,3.5-4,4.8c-1.9,0.8-2.5,1.4-2.5,2.2c0,1,0.8,1.6,2.1,1.6
			c1,0,2.2-0.6,2.9-1l0.3-0.2l1,2.8l-0.2,0.1C413.3,489.8,411.8,490.3,410.1,490.3z M278,490.3l-0.8-0.1l-0.7-15.9h3.1l0.2,8.5
			l4.4-6.7h0.6l4.4,6.7l0.2-8.5h3.1l-0.7,15.9l-0.8,0.1l-6.5-9.9L278,490.3L278,490.3z M304.7,488.2l-0.7-0.1v-13.7h2.8v8l7.8-8.2
			l0.6,0.1v13.8h-2.8v-7.8C312.4,480.1,304.7,488.2,304.7,488.2z M320,488.2l-0.7-0.1v-13.7h2.8v8l7.8-8.2l0.6,0.1v13.8h-2.8v-7.8
			C327.7,480.1,320,488.2,320,488.2z M351.2,488.2c-3,0-4.6-2-4.6-3.9c0-1.8,1-3,3.3-4c2.1-0.9,2.3-1.4,2.3-2.1
			c0-0.9-0.6-1.4-1.7-1.4c-1,0-2.2,0.4-3.2,1.2l-0.3,0.2l-1-2.5l0.2-0.1c1.3-0.8,2.8-1.3,4.3-1.3c3,0,4.6,2.1,4.6,4.2
			c0,1.9-1,3-3.5,4.1c-1.6,0.7-2.1,1.2-2.1,1.9c0,0.8,0.7,1.4,1.7,1.4c0.9,0,1.9-0.5,2.5-0.9l0.3-0.2l0.9,2.5l-0.2,0.1
			C353.9,487.6,352.6,488.2,351.2,488.2L351.2,488.2z M364.9,488.2c-4,0-6.9-3-6.9-7c0-4.1,2.9-7,6.8-7c4,0,6.9,3,6.9,7
			C371.7,485.2,368.8,488.2,364.9,488.2L364.9,488.2z M390,488.1l-6.3-13.8h2.9l1.3,3h4.8l1.3-3h3l-6.3,13.8
			C390.7,488.1,390,488.1,390,488.1z M433.8,488.1l-6.3-13.8h2.9l1.3,3h4.8l1.3-3h3l-6.3,13.8H433.8L433.8,488.1z M297,487.9v-13.6
			h2.8v13.6C299.8,487.9,297,487.9,297,487.9z M334.6,487.9v-13.6h8.5v2.6h-5.7v3.1h5.2v2.5h-5.2v2.9h5.7v2.6
			C343.1,487.9,334.6,487.9,334.6,487.9z M373,487.9v-2.6h4.2v-11h2.8v11h4.1v2.6C384.1,487.9,373,487.9,373,487.9z M416.8,487.9
			v-2.6h4.2v-11h2.8v11h4.1v2.6C427.9,487.9,416.8,487.9,416.8,487.9z M440.5,487.9v-2.6h4.2v-11h2.8v11h4.1v2.6L440.5,487.9
			L440.5,487.9z M454.6,487.9v-13.6h8.5v2.6h-5.7v3.1h5.2v2.5h-5.2v2.9h5.7v2.6C463.2,487.9,454.6,487.9,454.6,487.9z M364.8,485.6
			c2.3,0,3.9-1.9,3.9-4.5c0-2.6-1.7-4.5-3.9-4.5c-2.3,0-4,1.9-4,4.5C360.8,483.7,362.5,485.6,364.8,485.6z M390.3,483l1.4-3.4h-2.9
			L390.3,483z M434.1,483l1.4-3.4h-2.9L434.1,483z"/>
		<path class="st1" d="M248.4,495.5l-1.6-8.3l-5.4,3.1l3.1-5.4l-8.3-1.6l8.3-1.6l-3.1-5.4l5.4,3.1l1.6-8.3l1.6,8.3l5.4-3.1l-3.1,5.4
			l8.3,1.6l-8.3,1.6l3.1,5.4l-5.4-3.1C250,487.3,248.4,495.5,248.4,495.5z M255.4,473.6l-6.9-9.1l-7.1,9.1l-0.6-15.2h3.2l0.1,6.9
			l4.4-5.2l4.3,5.2l0.2-6.9h3.2C256.1,458.4,255.4,473.6,255.4,473.6z"/>
	</g>
</g>
</svg>
