<?xml version="1.0" encoding="UTF-8" standalone="no"?>
<svg xmlns:rdf="http://www.w3.org/1999/02/22-rdf-syntax-ns#" xmlns="http://www.w3.org/2000/svg" xml:space="preserve" height="72.836" viewBox="0 0 290.88745 72.835618" width="290.89" version="1.1" xmlns:cc="http://creativecommons.org/ns#" xmlns:dc="http://purl.org/dc/elements/1.1/"><g transform="matrix(1.25 0 0 -1.25 -289.04 627.41)"><g><path d="m1.0234 1.3164v70.836l20.444-8.523 20.441 8.523v-70.836l-40.885 0.0004zm222.59 13.161c-4.33 0-6.6 2.847-6.6 5.662 0 2.573 1.46 4.335 4.73 5.715 3.14 1.326 3.37 2.096 3.37 3.117 0 1.348-0.95 2.152-2.54 2.152-1.53 0-3.27-0.619-4.76-1.701l-0.36-0.258-1.37 3.574 0.22 0.151c1.87 1.224 4.12 1.925 6.16 1.925 4.35 0 6.63-3.032 6.63-6.027 0-2.787-1.32-4.348-5.06-5.971-2.34-1.03-3.1-1.701-3.1-2.755 0-1.249 1-2.024 2.6-2.024 1.3 0 2.77 0.696 3.62 1.291l0.37 0.25 1.27-3.519-0.21-0.149c-1.03-0.693-2.88-1.433-4.97-1.433zm-165.14 0.005l-0.989 0.104-0.832 19.918h3.881l0.196-10.672 5.548 8.359h0.754l5.504-8.336 0.24 10.649h3.881l-0.832-19.92-1.017-0.102-8.065 12.366-8.269-12.366zm33.396 2.661l-0.902 0.179v17.182h3.465v-9.967l9.778 10.311 0.76-0.164v-17.2h-3.46v9.811l-9.641-10.152zm19.131 0l-0.9 0.179v17.182h3.46v-9.967l9.78 10.311 0.77-0.164v-17.2h-3.47v9.811l-9.64-10.152zm38.93 0.074c-3.75 0-5.72 2.468-5.72 4.908 0 2.231 1.26 3.759 4.09 4.951 2.67 1.127 2.87 1.773 2.87 2.631 0 1.127-0.8 1.799-2.13 1.799-1.31 0-2.79-0.529-4.06-1.451l-0.36-0.258-1.22 3.164 0.23 0.15c1.61 1.056 3.55 1.66 5.32 1.66 3.76 0 5.73-2.627 5.73-5.222 0-2.385-1.19-3.786-4.37-5.17-1.99-0.875-2.63-1.438-2.63-2.32 0-1.042 0.83-1.69 2.18-1.69 1.1 0 2.35 0.592 3.08 1.1l0.36 0.25 1.14-3.115-0.22-0.147c-0.89-0.599-2.48-1.24-4.29-1.24zm17.1 0c-4.95 0-8.68 3.777-8.68 8.787 0 5.079 3.58 8.767 8.52 8.767 4.95 0 8.68-3.77 8.68-8.767 0-5.092-3.59-8.787-8.52-8.787zm31.49 0.045l-7.84 17.242h3.62l1.58-3.746h6.02l1.58 3.746h3.7l-7.82-17.242h-0.84zm54.74 0l-7.85 17.242h3.63l1.58-3.746h6.02l1.58 3.746h3.69l-7.82-17.242h-0.83zm-170.99 0.222v17.02h3.465v-17.02h-3.465zm46.959 0v17.02h10.64v-3.221h-7.17v-3.847h6.48v-3.129h-6.48v-3.602h7.17v-3.221h-10.64zm47.99 0v3.221h5.19v13.799h3.47v-13.799h5.17v-3.221h-13.83zm54.73 0v3.221h5.2v13.799h3.46v-13.799h5.17v-3.221h-13.83zm29.59 0v3.221h5.2v13.799h3.46v-13.799h5.17v-3.221h-13.83zm17.73 0v17.02h10.64v-3.221h-7.18v-3.845h6.49v-3.131h-6.49v-3.602h7.18v-3.221h-10.64zm-112.31 2.909c2.85 0 4.92 2.359 4.92 5.611 0 3.253-2.07 5.613-4.92 5.613-2.86 0-4.94-2.36-4.94-5.613 0-3.252 2.08-5.611 4.94-5.611zm31.93 3.226l1.81 4.254h-3.61l1.8-4.254zm54.74 0l1.8 4.254h-3.61l1.81-4.254z" transform="matrix(.8 0 0 -.8 231.23 501.93)" fill="#003c66"/><path d="m21.467 7.9961l-1.981 10.346-6.722-3.926 3.924 6.725-10.344 1.978 10.344 1.979-3.924 6.724 6.722-3.926 1.981 10.346 1.978-10.346 6.725 3.926-3.926-6.724 10.344-1.979-10.344-1.978 3.924-6.725-6.723 3.926-1.978-10.346zm8.767 27.404l-8.687 11.414-8.85-11.412-0.795 19.02h3.944l0.175-8.67 5.446 6.529 5.4-6.508 0.221 8.649h3.941l-0.795-19.022z" transform="matrix(.8 0 0 -.8 231.23 501.93)" fill="#fff"/></g></g></svg>
