<svg id="Layer_1" data-name="Layer 1" xmlns="http://www.w3.org/2000/svg" viewBox="0 0 2032.05 3518.21"><defs><style>.cls-1{fill:#003c66;}.cls-2{fill:#feffff;}.cls-3{fill:#d4dee5;}.cls-4{fill:#547c98;}.cls-5{fill:#fefefe;}</style></defs><title>Mstarlogo</title><path class="cls-1" d="M4,3520c-.67-.33-1.89-.63-1.91-1-.17-2.65-.09-5.32-.09-8V4H2020.71c3.66,0,7.33.11,11,.17.1,4,.29,8,.29,12q0,1744.5,0,3489c0,3.33.12,6.67-.15,10-.09,1.07-1.24,2.06-1.9,3.09-21.71-9.28-43.34-18.72-65.13-27.8q-325.63-135.79-651.31-271.49-142.8-59.52-285.53-119.19c-6.51-2.72-12-3.59-18.75-.28-12.55,6.11-25.68,11-38.57,16.38Q492.51,3315.11,14.39,3514.42C10.78,3515.92,7.46,3518.12,4,3520ZM919.83,847.57,589,654.41l-1.42,1.43q19.24,33,38.51,66.08,19.38,33.23,38.79,66.43,19.14,32.77,38.26,65.56c12.91,22.14,25.94,44.22,38.72,66.44,12.64,22,26,43.58,38.35,66.54l-509.9,97.52v1.51l510.33,97.68c-64.91,111.27-129,221.18-193.17,331.09l1.55,1.25,330.85-193.19c16.42,86,32.41,170.68,48.77,255.28,16.4,84.78,32.25,169.68,50.66,254.17q48.59-254.09,97.12-507.88c1.58-.07,2-.22,2.22-.09l324.41,189.11a46.79,46.79,0,0,0,4.46,2.13c.21.09.62-.09.86-.25s.36-.44.67-.84c-64.13-109.87-128.31-219.8-193.09-330.79l510.32-97.66c0-.51,0-1,0-1.51L1256,986.8l193.25-331.29c-28.83,14.79-56.35,30.79-83.85,46.83s-55.18,32.26-82.78,48.39-55.13,32.35-82.81,48.34c-27.5,15.89-54.58,32.54-83.13,48-32.1-167.74-63.93-334.1-95.79-500.46a56.1,56.1,0,0,0-1.55-5.68,1.21,1.21,0,0,0-.73-.63,6.31,6.31,0,0,0-1.59,0C984.7,508.87,952.39,677.55,919.83,847.57Zm533.94,849.26-1.88-.75L1023,2259.54c-1.44-.82-1.82-.91-2-1.15Q803.75,1978.51,586.53,1698.6a8.2,8.2,0,0,0-1.42-1.34,1.41,1.41,0,0,0-.94-.3c-.29,0-.56.29-1.43.8Q563.12,2167.35,543.45,2638h196c.23-2.87.53-5.15.57-7.43.38-18,.68-36,1-53.94q1-47.94,2-95.88c.88-41.61,1.85-83.22,2.64-124.83.87-46,1.57-91.91,2.39-137.87,0-2.07.59-4.14,1.14-7.78l269.17,322.66,265.7-320.17,2.08.61q5.44,212.25,10.89,424.33c15,2,188.54,1.3,196-.77Q1473.42,2167,1453.77,1696.83Z" transform="translate(-1.98 -1.98)"/><path class="cls-2" d="M4,3520c3.46-1.88,6.78-4.08,10.39-5.58q478.11-199.34,956.27-398.57c12.89-5.37,26-10.27,38.57-16.38,6.8-3.31,12.24-2.44,18.75.28q142.68,59.77,285.53,119.19,325.65,135.75,651.31,271.49c21.79,9.08,43.42,18.52,65.13,27.8a7.49,7.49,0,0,0,0,1.77Z" transform="translate(-1.98 -1.98)"/><path class="cls-3" d="M2030,3520a7.49,7.49,0,0,1,0-1.77c.66-1,1.81-2,1.9-3.09.27-3.32.15-6.66.15-10q0-1744.5,0-3489c0-4-.19-8-.29-12L2032,2c.67.33,1.89.63,1.91,1,.17,2.65.09,5.32.09,8V3511c0,2.33-.11,4.67,0,7C2034.24,3522,2031.25,3519.18,2030,3520Z" transform="translate(-1.98 -1.98)"/><path class="cls-4" d="M2032,2l-.3,2.18c-3.66-.06-7.33-.17-11-.17H2c.33-.67.63-1.89,1-1.91C5.66,1.92,8.33,2,11,2Z" transform="translate(-1.98 -1.98)"/><path class="cls-5" d="M919.83,847.57c32.56-170,64.87-338.7,97.15-507.26a6.31,6.31,0,0,1,1.59,0,1.21,1.21,0,0,1,.73.63,56.1,56.1,0,0,1,1.55,5.68c31.86,166.36,63.69,332.72,95.79,500.46,28.55-15.5,55.63-32.15,83.13-48,27.68-16,55.22-32.21,82.81-48.34s55.18-32.28,82.78-48.39,55-32,83.85-46.83L1256,986.8l510.3,97.62c0,.5,0,1,0,1.51L1256,1183.59c64.78,111,129,220.92,193.09,330.79-.31.4-.44.69-.67.84s-.65.34-.86.25a46.79,46.79,0,0,1-4.46-2.13l-324.41-189.11c-.24-.13-.64,0-2.22.09q-48.51,253.65-97.12,507.88c-18.41-84.49-34.26-169.39-50.66-254.17-16.36-84.6-32.35-169.27-48.77-255.28L589,1515.94l-1.55-1.25c64.13-109.91,128.26-219.82,193.17-331.09l-510.33-97.68v-1.51l509.9-97.52c-12.33-23-25.71-44.55-38.35-66.54-12.78-22.22-25.81-44.3-38.72-66.44Q684,821.12,664.9,788.35q-19.39-33.23-38.79-66.43-19.27-33-38.51-66.08l1.42-1.43Z" transform="translate(-1.98 -1.98)"/><path class="cls-5" d="M1453.77,1696.83q19.63,470.1,39.27,940.05c-7.48,2.07-181,2.74-196,.77q-5.44-212-10.89-424.33l-2.08-.61-265.7,320.17L749.18,2210.22c-.55,3.64-1.1,5.71-1.14,7.78-.82,46-1.52,91.91-2.39,137.87-.79,41.61-1.76,83.22-2.64,124.83q-1,47.94-2,95.88c-.36,18-.66,36-1,53.94,0,2.28-.34,4.56-.57,7.43h-196q19.66-470.57,39.29-940.19c.87-.51,1.14-.77,1.43-.8a1.41,1.41,0,0,1,.94.3,8.2,8.2,0,0,1,1.42,1.34Q803.76,1978.49,1021,2258.39c.18.24.56.33,2,1.15l428.89-563.46Z" transform="translate(-1.98 -1.98)"/></svg>