<svg id="Layer_1" data-name="Layer 1" xmlns="http://www.w3.org/2000/svg" viewBox="0 0 150.45 260.41"><defs><style>.cls-1{fill:#fff;}.cls-2{fill:#4d7794;}.cls-3{fill:#aabecc;}.cls-4{fill:#003c66;}.cls-5{fill:#fefefe;}</style></defs><title>Mstarlogo_small</title><path class="cls-1" d="M150.51,260.37c0,.05,0,.14-.07.14H.4a.49.49,0,0,0,0-.12L11.05,256q31.74-13.23,63.48-26.47a2.05,2.05,0,0,1,1.73,0q13.59,5.72,27.2,11.36l46,19.16c.31.13.63.24,1,.35Z" transform="translate(-0.07 -0.11)"/><path class="cls-2" d="M150.51,260.37l-.15,0V1.58c0-.23,0-.45,0-.67s0-.38-.05-.65H1.21L.33.3.26.11H150.51Z" transform="translate(-0.07 -0.11)"/><path class="cls-3" d="M.26.11.33.3c0,.34,0,.69,0,1v258c0,.24,0,.49,0,.73a1.35,1.35,0,0,0,.11.34.49.49,0,0,1,0,.12c-.09-.06-.31.15-.29-.14s0-.35,0-.52Q.11,130.31.12.78C.12.56,0,.28.26.11Z" transform="translate(-0.07 -0.11)"/><path class="cls-4" d="M.41,260.39a1.35,1.35,0,0,1-.11-.34c0-.24,0-.49,0-.73V1.33c0-.34,0-.69,0-1l.88,0h149.1c0,.27,0,.46.05.65s0,.44,0,.67V260.34c-.32-.11-.64-.22-1-.35l-45.95-19.16q-13.6-5.67-27.2-11.36a2.05,2.05,0,0,0-1.73,0Q42.79,242.75,11.05,256Zm43.3-148.28c1.07-.61,2.15-1.22,3.21-1.84l20.5-12c.22-.13.45-.24.71-.37,2.41,12.63,4.81,25.16,7.21,37.68h.14c2.4-12.55,4.8-25.09,7.21-37.71l24.51,14.3.1-.11L93,87.59l7.63-1.46,7.55-1.45,7.55-1.44c2.52-.47,5-.94,7.55-1.44s5-.91,7.41-1.56L93,73c.15-.28.27-.52.4-.75l13.42-23a5.92,5.92,0,0,0,.31-.73l.09-.11-.11.07c-.24.12-.49.22-.72.35L83.3,62.36a6.08,6.08,0,0,1-.62.3Q79.07,43.73,75.47,25c-1.32,6.3-2.52,12.58-3.73,18.87s-2.39,12.54-3.63,18.89L66,61.46l-2-1.19-2-1.16-2-1.19-2-1.19-2-1.2-2-1.19-2-1.19-2-1.16-2-1.19c-.68-.4-1.35-.81-2-1.19a20.85,20.85,0,0,0-2-1.13l-.09.12C48.3,56.72,53,64.84,57.82,73L20.1,80.24v.13l37.69,7.22c-.15.28-.25.47-.36.66L44,111.31c-.13.23-.24.48-.35.72l-.1.09Zm63.91,13.47-.14,0L75.74,167.26l-.13-.1L43.5,125.78l-.15-.16a.09.09,0,0,0-.06,0l-.12,0q-1.45,34.78-2.91,69.64H54.73c0-.24.07-.46.08-.68.07-3.38.13-6.75.19-10.13,0-1.28,0-2.56.06-3.85.07-3.44.16-6.89.24-10.34,0-2,.07-4.1.11-6.14a3.35,3.35,0,0,1,.1-.51l19.84,23.78c.1,0,.13,0,.14,0l19.34-23.28.15-.16.06,0,.07,0s0,0,.13.07q.39,15.61.8,31.34h14.49c0-.25,0-.44,0-.64-.13-3-.27-6.05-.4-9.08l-.6-14.18q-.28-7.09-.59-14.18-.24-6.09-.49-12.19c-.13-3.22-.28-6.45-.41-9.67-.11-2.88-.22-5.77-.34-8.65C107.69,126.3,107.65,125.94,107.62,125.58Z" transform="translate(-0.07 -0.11)"/><path class="cls-5" d="M107.17,48.56c-.11.25-.19.5-.32.73l-13.42,23c-.13.23-.25.47-.4.75l37.66,7.21c-2.44.65-4.94,1.07-7.41,1.56s-5,1-7.55,1.44l-7.55,1.44-7.55,1.45L93,87.59l14.3,24.5-.1.11L82.69,97.9c-2.41,12.62-4.81,25.16-7.21,37.71h-.14c-2.4-12.52-4.8-25.05-7.21-37.68-.26.13-.49.24-.71.37l-20.5,12c-1.06.62-2.14,1.23-3.21,1.84a.3.3,0,0,0-.08-.08c.11-.24.22-.49.35-.72L57.43,88.25c.11-.19.21-.38.36-.66L20.1,80.37v-.13L57.82,73C53,64.84,48.3,56.72,43.57,48.6l.09-.12a20.85,20.85,0,0,1,2,1.13c.69.38,1.36.79,2,1.19l2,1.19,2,1.16,2,1.19,2,1.19,2,1.2,2,1.19,2,1.19,2,1.16,2,1.19,2.15,1.25c1.24-6.35,2.42-12.62,3.63-18.89S74.15,31.25,75.47,25q3.6,18.81,7.21,37.71a6.08,6.08,0,0,0,.62-.3l23.12-13.49c.23-.13.48-.23.72-.35Z" transform="translate(-0.07 -0.11)"/><path class="cls-5" d="M107.62,125.58c0,.36.07.72.08,1.08.12,2.88.23,5.77.34,8.65.13,3.22.28,6.45.41,9.67q.26,6.09.49,12.19.3,7.08.59,14.18l.6,14.18c.13,3,.27,6.05.4,9.08,0,.2,0,.39,0,.64H96q-.41-15.7-.8-31.34c-.09,0-.11-.07-.13-.07l-.07,0-.06,0-.15.16L75.49,187.34s0,0-.14,0L55.51,163.61a3.35,3.35,0,0,0-.1.51c0,2-.07,4.09-.11,6.14-.08,3.45-.17,6.9-.24,10.34,0,1.29,0,2.57-.06,3.85-.06,3.38-.12,6.75-.19,10.13,0,.22-.05.44-.08.68H40.26q1.45-34.87,2.91-69.64l.12,0a.09.09,0,0,1,.06,0l.15.16,32.11,41.38.13.1,31.74-41.71Z" transform="translate(-0.07 -0.11)"/><path class="cls-5" d="M107.14,48.52l.11-.07a.76.76,0,0,0-.08.11Z" transform="translate(-0.07 -0.11)"/><path class="cls-5" d="M43.71,112.11h-.18l.1-.09A.3.3,0,0,1,43.71,112.11Z" transform="translate(-0.07 -0.11)"/></svg>